<?xml version="1.0" standalone="no"?>
<!DOCTYPE svg PUBLIC "-//W3C//DTD SVG 20010904//EN"
 "http://www.w3.org/TR/2001/REC-SVG-20010904/DTD/svg10.dtd">
<svg version="1.0" xmlns="http://www.w3.org/2000/svg"
 width="464.000000pt" height="424.000000pt" viewBox="0 0 464.000000 424.000000"
 preserveAspectRatio="xMidYMid meet">
<metadata>
Created by potrace 1.16, written by Peter Selinger 2001-2019
</metadata>
<g transform="translate(0.000000,424.000000) scale(0.100000,-0.100000)"
fill="#000000" stroke="none">
<path d="M1404 3539 l-494 -494 0 -190 0 -190 493 -493 c270 -270 497 -492
502 -492 6 0 118 108 250 240 l240 240 240 -240 c132 -132 245 -240 250 -240
16 0 995 984 995 1000 0 8 -221 236 -490 505 l-491 491 3 137 3 137 720 -720
c557 -557 719 -724 717 -740 -6 -36 24 -70 62 -70 41 0 66 26 66 68 0 35 -30
62 -70 62 -20 0 -173 149 -755 731 -401 401 -738 735 -749 741 -16 9 -50 -21
-260 -231 l-241 -241 -230 231 c-127 126 -238 235 -249 241 -16 9 -82 -53
-512 -483z m716 -614 l-245 -245 245 -245 245 -245 -225 -225 c-124 -124 -229
-225 -235 -225 -6 0 -159 148 -340 330 l-330 330 133 133 133 133 0 279 0 280
202 202 202 203 230 -230 230 -230 -245 -245z m1298 -102 l-137 -138 -1 -280
0 -280 -198 -197 -197 -198 -152 152 c-84 84 -153 157 -153 162 0 6 72 81 160
169 88 87 160 164 160 170 1 7 1 79 1 161 l0 150 -238 238 -238 238 230 230
230 230 335 -335 335 -335 -137 -137z m-1958 135 l0 -223 -112 112 -113 113
110 110 c60 60 111 110 112 110 2 0 3 -100 3 -222z m1240 -723 l-160 -160 -57
58 -58 57 215 215 215 215 3 -112 3 -112 -161 -161z m743 60 c-60 -60 -109
-111 -110 -114 -2 -2 -3 96 -3 220 l0 224 110 -110 110 -110 -107 -110z"/>
<path d="M602 2800 c-14 -13 -22 -33 -22 -53 0 -29 -23 -55 -205 -237 -113
-113 -205 -209 -205 -215 0 -5 445 -455 988 -998 908 -908 988 -991 984 -1017
-8 -57 73 -94 111 -52 22 25 21 75 -1 95 -10 10 -32 17 -48 17 -25 0 -156 127
-1007 978 l-977 977 198 198 c171 171 201 197 228 197 39 0 64 27 64 68 0 56
-66 81 -108 42z"/>
<path d="M3932 2527 c-18 -18 -32 -39 -32 -45 0 -7 21 -49 46 -93 35 -61 44
-83 35 -92 -9 -9 -24 -5 -64 18 -29 16 -69 38 -89 50 l-37 20 -35 -35 c-20
-18 -36 -39 -36 -44 0 -6 59 -42 131 -79 107 -56 133 -66 145 -56 12 10 22 5
54 -26 l40 -39 35 34 c19 19 35 39 35 45 0 6 -15 26 -34 44 -28 27 -33 37 -24
51 9 14 -2 43 -57 149 -38 72 -71 131 -75 131 -3 0 -20 -15 -38 -33z"/>
<path d="M652 2407 l-142 -143 40 -39 40 -39 53 52 53 52 49 -50 c27 -27 54
-50 60 -50 6 0 24 14 40 30 l29 30 -54 55 -54 55 22 22 22 22 60 -59 60 -59
35 34 35 34 -97 98 c-54 54 -100 98 -103 98 -3 0 -69 -64 -148 -143z"/>
<path d="M882 2177 l-142 -143 40 -39 40 -39 48 47 c42 41 50 46 61 33 10 -12
8 -28 -10 -85 l-23 -71 39 -40 c40 -41 55 -49 55 -29 0 7 9 43 20 80 l21 69
49 0 c60 0 104 33 121 89 18 60 -2 104 -89 194 -42 42 -78 77 -81 77 -4 0 -70
-64 -149 -143z"/>
<path d="M3575 2170 l-99 -100 29 -30 c16 -16 33 -30 39 -30 6 0 39 28 73 62
34 34 66 59 70 55 3 -4 -2 -59 -12 -123 l-18 -116 54 -54 54 -54 110 110 109
110 -29 30 c-16 16 -33 30 -39 30 -6 0 -41 -30 -78 -67 -37 -37 -70 -64 -74
-60 -4 3 2 58 12 122 l18 115 -49 50 c-27 28 -54 50 -60 50 -6 0 -55 -45 -110
-100z"/>
<path d="M1153 1906 l-142 -142 102 -102 103 -102 34 35 34 35 -62 63 -63 63
24 22 23 22 49 -50 c27 -28 54 -50 60 -50 6 0 24 14 40 30 l29 30 -54 55 c-45
46 -51 56 -40 69 7 9 16 16 20 16 4 0 32 -26 63 -57 l57 -57 35 34 35 34 -97
98 c-54 54 -100 98 -103 97 -3 0 -69 -65 -147 -143z"/>
<path d="M3397 1992 l-27 -28 110 -109 c60 -60 105 -114 101 -118 -5 -5 -61
30 -125 78 -64 47 -122 88 -129 91 -7 2 -45 -28 -85 -69 l-72 -72 145 -145
144 -144 31 29 c16 16 30 34 30 40 0 5 -47 57 -105 115 -59 59 -101 108 -96
113 5 5 64 -31 136 -84 l127 -92 69 69 c38 38 69 73 69 79 0 17 -264 275 -281
275 -8 0 -27 -13 -42 -28z"/>
<path d="M2235 1760 l-150 -150 153 -152 152 -153 150 150 c83 82 150 154 150
160 0 13 -282 295 -295 295 -6 0 -78 -67 -160 -150z"/>
<path d="M1389 1669 l-142 -140 39 -40 38 -39 145 145 145 144 -34 36 c-19 19
-37 35 -41 35 -5 0 -72 -63 -150 -141z"/>
<path d="M3030 1625 l-95 -95 140 -140 c77 -77 144 -140 150 -140 6 0 53 43
105 95 l94 95 -29 30 c-16 16 -33 30 -39 30 -6 0 -36 -26 -68 -57 l-58 -57
-22 22 -22 22 54 55 54 55 -29 30 c-16 16 -33 30 -38 30 -5 0 -32 -22 -60 -50
-39 -39 -53 -47 -64 -39 -22 19 -15 32 42 89 l55 54 -32 33 c-18 18 -35 33
-38 33 -3 0 -48 -43 -100 -95z"/>
<path d="M1575 1617 c-78 -36 -145 -131 -145 -207 0 -79 76 -170 141 -170 31
0 36 -9 17 -28 -9 -9 -5 -19 17 -42 l29 -30 68 67 c86 86 88 103 17 179 -29
30 -57 54 -64 54 -14 0 -55 -42 -55 -56 0 -6 11 -21 25 -34 29 -28 31 -36 9
-44 -34 -13 -103 51 -104 96 0 32 56 100 102 124 36 19 60 12 94 -28 20 -25
25 -39 21 -64 -5 -27 0 -37 34 -70 l39 -38 15 37 c33 79 5 173 -68 231 -31 25
-48 31 -100 33 -38 2 -74 -2 -92 -10z"/>
<path d="M2835 1414 c-36 -19 -155 -134 -155 -149 0 -6 63 -73 140 -150 l140
-140 37 38 37 37 -47 48 c-41 42 -46 50 -33 61 12 10 28 8 85 -10 l71 -23 40
39 c22 21 37 42 32 46 -4 4 -40 17 -79 28 l-73 22 0 49 c0 40 -5 56 -28 81
-24 27 -37 33 -83 36 -37 2 -64 -2 -84 -13z"/>
<path d="M1820 1245 l-145 -145 38 -37 37 -38 58 58 57 57 48 -47 47 -48 -57
-57 -58 -58 40 -40 40 -40 145 145 144 145 -39 40 -39 40 -53 -52 -53 -53 -47
48 -48 47 53 53 52 53 -38 37 -38 37 -144 -145z"/>
<path d="M2542 1137 c-50 -51 -92 -97 -92 -102 0 -6 63 -73 140 -150 l140
-139 35 34 c19 19 35 39 35 44 0 6 -21 32 -47 58 l-47 48 52 53 52 53 -35 34
-35 34 -53 -52 -53 -52 -22 23 -22 23 55 54 c30 30 55 59 55 65 0 11 -51 65
-61 65 -2 0 -46 -42 -97 -93z"/>
<path d="M2207 1082 c-15 -15 -27 -32 -27 -37 0 -5 14 -24 32 -42 l32 -33
-109 -110 -109 -110 39 -40 39 -40 111 110 110 110 37 -37 38 -37 35 34 35 34
-112 113 c-62 62 -115 113 -118 113 -4 0 -18 -13 -33 -28z"/>
</g>
</svg>
