<?xml version="1.0" standalone="no"?>
<!DOCTYPE svg PUBLIC "-//W3C//DTD SVG 20010904//EN"
 "http://www.w3.org/TR/2001/REC-SVG-20010904/DTD/svg10.dtd">
<svg version="1.0" xmlns="http://www.w3.org/2000/svg"
 width="1048.000000pt" height="342.000000pt" viewBox="0 0 1048.000000 342.000000"
 preserveAspectRatio="xMidYMid meet">

<g transform="translate(0.000000,342.000000) scale(0.100000,-0.100000)"
fill="#000000" stroke="none">
<path d="M788 2504 c-12 -11 -10 -2004 1 -2004 6 0 72 24 148 54 76 29 146 56
155 59 16 6 18 30 20 274 l3 268 122 6 c110 5 127 8 187 38 73 36 108 72 145
151 l26 55 0 440 0 440 -27 51 c-37 70 -98 120 -178 146 -58 18 -95 21 -330
25 -146 3 -268 2 -272 -3z m453 -303 l29 -29 0 -321 c0 -179 -4 -331 -10 -345
-12 -33 -62 -58 -108 -54 l-37 3 -3 388 -2 387 51 0 c43 0 55 -5 80 -29z"/>
<path d="M5680 2500 c-396 -46 -719 -312 -843 -695 -34 -102 -47 -187 -47
-300 0 -193 41 -344 140 -521 59 -103 223 -271 332 -338 169 -104 321 -146
528 -148 256 -1 442 63 644 225 156 124 271 299 333 507 26 89 28 107 28 270
0 163 -2 182 -28 269 -37 123 -73 200 -137 297 -133 199 -351 351 -585 409
-105 26 -267 37 -365 25z m263 -115 c28 -5 37 -10 33 -21 -9 -23 -958 -1284
-967 -1284 -8 0 -59 105 -59 121 0 11 867 1170 887 1186 9 7 27 10 42 8 14 -2
43 -7 64 -10z m-225 -5 c-2 -6 -180 -247 -397 -536 -238 -317 -398 -521 -403
-516 -5 5 -13 45 -17 87 l-7 79 100 135 c56 75 203 271 327 436 l225 300 50
12 c63 14 127 16 122 3z m445 -61 c20 -11 37 -22 37 -25 0 -3 -47 -69 -105
-147 -316 -427 -385 -521 -385 -529 0 -4 110 -8 244 -8 135 0 247 -3 249 -7 2
-5 -155 -220 -349 -480 l-353 -472 -52 22 c-28 12 -54 27 -56 34 -3 6 42 74
98 150 57 76 181 243 276 371 95 128 173 237 173 242 0 6 -97 11 -250 12
l-250 3 212 287 c117 157 262 352 321 432 119 161 109 155 190 115z m-805 -61
c-131 -186 -434 -578 -436 -565 -6 29 55 187 105 269 58 98 173 218 268 282
38 25 73 46 78 46 4 0 -3 -15 -15 -32z m978 -40 c24 -18 44 -37 44 -41 0 -5
-73 -104 -163 -220 -89 -117 -173 -227 -185 -244 -23 -33 -25 -33 -103 -33
-43 0 -79 3 -79 8 1 4 45 66 100 137 55 72 150 196 212 278 62 81 117 147 122
147 5 0 28 -15 52 -32z m150 -145 c17 -21 34 -44 38 -51 5 -8 -27 -59 -93
-145 -164 -216 -143 -199 -234 -195 l-78 3 162 213 c89 116 165 212 169 212 4
0 20 -17 36 -37z m125 -198 l31 -65 -164 -219 c-518 -692 -732 -977 -742 -983
-6 -4 -18 -6 -26 -4 -8 3 -36 7 -62 11 -27 3 -48 11 -48 16 0 5 116 163 257
352 141 188 360 480 487 650 127 169 232 307 234 307 2 0 17 -29 33 -65z m73
-242 c17 -131 43 -85 -315 -562 -294 -392 -327 -432 -360 -441 -68 -19 -134
-29 -141 -22 -8 8 788 1072 801 1072 5 0 12 -21 15 -47z m-1150 -245 c-4 -7
-93 -124 -197 -261 l-189 -248 -34 38 c-39 44 -49 69 -37 86 5 7 76 99 157
205 l147 192 80 0 c61 0 78 -3 73 -12z m234 -47 c-24 -33 -72 -97 -107 -143
-36 -45 -101 -130 -145 -188 -174 -227 -201 -260 -211 -260 -5 0 -30 17 -55
39 l-44 38 40 49 c22 27 78 99 124 159 46 61 128 167 182 238 l99 127 80 0 80
0 -43 -59z m882 -120 c-46 -136 -117 -249 -224 -357 -66 -67 -194 -160 -204
-149 -2 2 55 84 128 182 73 98 174 233 224 300 55 73 92 116 94 106 2 -8 -6
-45 -18 -82z"/>
<path d="M6937 2503 c-8 -7 -10 -2003 -2 -2003 5 0 121 44 250 95 l60 24 3
257 c1 169 6 262 13 271 8 9 39 13 104 13 135 0 212 26 280 94 34 34 60 72 76
111 l24 60 0 420 0 420 -26 56 c-50 107 -134 160 -283 179 -82 11 -489 13
-499 3z m432 -288 c16 -8 31 -22 35 -30 3 -9 6 -165 6 -347 l0 -330 -30 -29
c-26 -26 -36 -30 -77 -27 l-48 3 -3 375 c-1 206 0 381 3 387 6 18 79 16 114
-2z"/>
<path d="M1912 2261 c-74 -26 -122 -67 -157 -136 l-30 -60 0 -570 c0 -558 0
-571 21 -615 28 -60 67 -97 134 -129 48 -22 68 -26 160 -26 99 0 109 2 172 33
81 40 120 88 137 170 9 41 11 207 9 602 -3 499 -5 548 -21 585 -21 47 -70 100
-111 122 -87 46 -221 56 -314 24z m174 -222 c18 -20 19 -44 19 -528 0 -560 1
-551 -60 -551 -67 0 -65 -14 -65 550 0 441 2 508 16 528 20 28 65 29 90 1z"/>
<path d="M2410 2248 c0 -8 7 -69 15 -136 9 -68 24 -207 35 -310 11 -103 31
-290 45 -417 14 -126 34 -320 45 -429 11 -109 23 -203 26 -207 3 -5 54 -9 114
-9 l108 0 11 83 c6 45 15 127 21 182 5 55 16 156 24 225 8 69 18 163 22 208 5
58 11 85 21 89 8 3 16 3 19 0 3 -2 16 -112 30 -243 49 -479 54 -526 60 -535 3
-5 54 -9 113 -9 l107 0 13 103 c7 56 21 179 31 272 11 94 31 265 45 380 14
116 34 291 45 389 11 99 25 209 30 245 5 36 10 81 10 99 l0 32 -115 0 -115 0
0 -27 c0 -16 -7 -102 -15 -193 -8 -91 -21 -262 -29 -381 -15 -213 -20 -249
-36 -249 -18 0 -24 49 -86 670 -8 85 -17 161 -19 168 -3 8 -28 12 -79 12 l-75
0 -5 -42 c-3 -24 -17 -142 -31 -263 -54 -476 -60 -517 -73 -522 -7 -3 -15 -4
-17 -2 -2 2 -13 150 -26 329 -12 179 -25 363 -28 410 l-6 85 -117 3 c-92 2
-118 0 -118 -10z"/>
<path d="M3470 1500 l0 -760 455 0 c250 0 455 2 455 4 0 1 -4 16 -10 32 -5 16
-21 68 -35 117 l-26 87 -295 0 -294 0 0 205 0 205 100 0 101 0 -3 116 -3 116
-95 2 -95 1 -3 203 -2 202 120 0 120 0 0 115 0 115 -245 0 -245 0 0 -760z"/>
<path d="M4050 1666 l0 -596 120 0 120 0 0 89 c0 97 5 121 25 121 15 0 20 -11
121 -312 l76 -228 129 0 c71 0 129 3 129 8 0 4 -50 158 -111 342 l-110 335 44
46 c65 69 72 102 72 374 0 213 -2 233 -21 276 -26 56 -56 85 -114 112 -40 19
-68 22 -262 25 l-218 4 0 -596z m346 363 c17 -19 19 -38 19 -194 0 -153 -2
-175 -18 -193 -23 -26 -87 -39 -98 -20 -10 15 -12 412 -2 421 15 16 80 7 99
-14z"/>
<path d="M7840 1545 l0 -715 34 -38 34 -37 481 -3 481 -3 0 126 0 125 -387 2
-388 3 -3 628 -2 627 -125 0 -125 0 0 -715z"/>
<path d="M8376 2243 c-4 -15 -53 -278 -157 -838 -11 -60 -27 -144 -34 -186 -8
-42 -15 -81 -15 -88 0 -8 32 -11 117 -9 l117 3 8 35 c4 19 10 61 13 93 l6 57
61 31 c33 17 65 28 72 26 7 -3 17 -49 24 -116 6 -62 14 -116 17 -121 4 -6 58
-10 122 -10 l116 0 -7 52 c-4 29 -20 121 -36 203 -16 83 -50 254 -75 380 -24
127 -56 292 -71 368 l-27 137 -123 0 c-108 0 -123 -2 -128 -17z m143 -476 c6
-8 14 -52 17 -98 l7 -85 -27 -12 c-44 -20 -58 -16 -52 16 3 15 8 56 11 92 10
101 18 117 44 87z"/>
<path d="M8750 2248 c1 -20 119 -715 170 -993 16 -86 20 -153 20 -307 l0 -198
130 0 130 0 0 183 c0 139 5 209 21 297 11 63 31 178 44 255 54 307 65 367 95
535 17 96 34 190 37 208 l6 32 -121 0 c-66 0 -123 -4 -126 -8 -3 -5 -12 -84
-21 -178 -34 -367 -47 -465 -64 -462 -17 3 -15 -11 -58 453 l-18 190 -123 3
c-94 2 -122 0 -122 -10z"/>
<path d="M9292 847 c-13 -15 -5 -30 26 -46 26 -14 19 -35 -9 -28 -11 3 -19 1
-19 -5 0 -5 15 -8 32 -6 43 4 49 32 12 50 -36 17 -41 35 -12 41 21 4 22 4 2 6
-12 0 -26 -5 -32 -12z"/>
<path d="M9391 813 c0 -27 3 -41 6 -33 2 8 7 21 9 29 3 11 7 11 19 1 12 -10
18 -10 30 0 13 11 15 8 15 -19 0 -17 5 -31 10 -31 6 0 10 23 10 50 0 55 -10
62 -35 28 l-16 -23 -16 23 c-24 34 -33 27 -32 -25z"/>
</g>
</svg>
