<?xml version="1.0" standalone="no"?>
<!DOCTYPE svg PUBLIC "-//W3C//DTD SVG 20010904//EN"
 "http://www.w3.org/TR/2001/REC-SVG-20010904/DTD/svg10.dtd">
<svg version="1.0" xmlns="http://www.w3.org/2000/svg"
 width="1565.000000pt" height="765.000000pt" viewBox="0 0 1565.000000 765.000000"
 preserveAspectRatio="xMidYMid meet">
<metadata>
Created by potrace 1.16, written by Peter Selinger 2001-2019
</metadata>
<g transform="translate(0.000000,765.000000) scale(0.100000,-0.100000)"
fill="#000000" stroke="none">
<path d="M5475 7035 c-220 -48 -380 -188 -464 -404 l-26 -66 -5 -465 -5 -465
-1995 -5 -1995 -5 -68 -32 c-135 -64 -233 -191 -256 -333 -7 -43 -11 -521 -11
-1430 0 -1481 -1 -1439 55 -1550 55 -109 188 -208 309 -231 39 -7 566 15 2097
86 1124 52 2062 95 2084 95 l40 0 55 -107 c72 -140 228 -374 328 -493 523
-622 1259 -982 2062 -1007 584 -18 1146 141 1625 462 188 125 286 205 435 355
216 216 376 435 515 708 44 87 48 92 79 92 18 0 954 -45 2082 -100 1683 -82
2059 -98 2104 -89 165 34 303 164 345 324 13 52 15 230 15 1460 0 1510 2 1452
-51 1558 -51 101 -142 178 -257 216 -61 21 -64 21 -2036 21 l-1975 0 -3 453
-4 452 -27 81 c-64 191 -202 330 -399 402 l-73 27 -2260 2 c-1847 1 -2271 -1
-2320 -12z m4596 -296 c72 -34 134 -96 168 -168 l26 -56 3 -512 3 -513 -60 0
-60 0 -3 46 -3 46 -34 -46 -35 -46 -73 0 c-40 0 -73 3 -73 6 0 4 50 70 110
147 l111 141 -3 356 c-3 308 -5 359 -20 385 -21 39 -64 82 -103 103 -28 16
-203 17 -2260 17 l-2230 0 -42 -24 c-47 -27 -88 -80 -103 -132 -6 -19 -10
-179 -10 -364 l0 -330 115 -145 c63 -80 115 -148 115 -152 0 -5 -33 -8 -72 -8
l-73 1 -40 52 -40 52 -3 -53 -3 -52 -60 0 -59 0 0 493 c0 544 1 551 63 644 36
55 108 106 176 127 39 13 367 14 2281 13 l2235 -2 56 -26z m-3806 -431 c417
-209 446 -222 467 -209 13 8 175 109 360 223 l337 209 111 -3 110 -3 -356
-220 c-197 -121 -380 -234 -408 -252 l-50 -31 432 -215 432 -215 2 467 3 466
58 3 57 3 0 -464 c0 -255 2 -466 4 -468 3 -2 199 92 437 209 l432 212 -408
253 -408 252 111 3 111 3 355 -221 c196 -121 361 -220 366 -220 6 0 208 99
451 220 l441 221 126 -2 c123 -1 192 -13 199 -34 1 -5 -137 -188 -308 -405
-171 -217 -313 -398 -315 -401 -2 -3 24 -47 56 -98 33 -51 60 -94 60 -97 0 -2
-31 -4 -69 -4 l-69 0 -29 45 c-15 25 -30 45 -33 45 -3 0 -20 -21 -39 -45 l-33
-45 -74 0 c-41 0 -74 2 -74 5 0 3 30 43 66 89 37 46 65 88 63 93 -2 4 -98 67
-214 138 l-210 131 -462 -228 -462 -228 -129 0 -130 0 -460 229 c-405 202
-462 228 -478 216 -11 -7 -104 -65 -209 -130 -104 -64 -192 -119 -194 -120 -2
-2 29 -45 68 -94 39 -50 71 -93 71 -96 0 -3 -33 -5 -74 -5 l-74 0 -38 50 c-21
28 -41 50 -44 50 -3 0 -18 -23 -33 -50 l-28 -50 -70 0 c-38 0 -69 2 -69 5 0 3
27 49 60 101 33 53 57 101 53 107 -3 7 -143 185 -309 397 -167 212 -304 390
-306 395 -6 20 70 34 194 34 l128 1 445 -222z m8255 -991 c19 -12 43 -38 54
-57 21 -35 21 -44 24 -1395 2 -934 -1 -1376 -8 -1410 -7 -33 -22 -61 -43 -83
-55 -57 -72 -57 -378 -7 -4102 669 -8625 671 -12772 5 l-319 -51 -46 23 c-25
13 -55 36 -66 51 -21 28 -21 35 -24 1430 -2 1351 -2 1403 16 1437 11 19 34 45
52 58 l33 22 6722 0 6722 0 33 -23z m-6140 -2577 c308 -9 761 -29 768 -35 2
-2 -11 -27 -29 -56 -173 -284 -442 -513 -748 -634 -697 -276 -1492 -18 -1888
613 -25 40 -44 75 -41 77 2 2 96 9 208 15 512 28 1187 36 1730 20z m1274 -80
c9 -9 -118 -275 -153 -319 -36 -46 -111 -24 -111 32 0 10 18 50 41 89 23 38
56 102 74 141 l32 72 54 -3 c30 -2 58 -8 63 -12z m-3633 -37 c37 -85 23 -126
-40 -121 -34 3 -38 7 -72 78 -42 86 -40 90 39 90 l53 0 20 -47z m-452 -133
c196 -480 572 -901 1041 -1165 47 -26 88 -53 93 -59 16 -24 2 -70 -26 -86 -26
-14 -31 -13 -94 20 -106 56 -320 201 -423 288 -254 213 -485 504 -631 794 -48
96 -129 291 -129 312 0 15 24 21 85 25 30 1 32 -1 84 -129z m4569 115 c8 -7
-93 -247 -150 -355 -69 -133 -177 -298 -275 -420 -80 -101 -305 -326 -334
-335 -49 -16 -102 32 -80 73 5 9 64 71 131 137 138 136 221 235 319 380 105
157 157 257 262 514 9 22 13 23 67 16 31 -4 59 -8 60 -10z m-3932 -312 c258
-297 254 -291 231 -327 -13 -20 -26 -26 -51 -26 -29 0 -43 10 -96 68 -108 117
-192 231 -192 259 0 28 33 63 60 63 8 0 30 -17 48 -37z m2998 -239 c33 -33 20
-67 -51 -135 -651 -621 -1679 -723 -2451 -245 -101 63 -123 90 -104 131 22 48
52 43 179 -33 274 -164 535 -247 854 -272 487 -39 982 122 1364 442 50 41 101
87 114 102 28 30 71 35 95 10z m-181 -732 c24 -21 21 -54 -5 -79 -13 -12 -72
-46 -133 -76 -573 -284 -1233 -340 -1848 -155 -74 22 -95 45 -83 92 9 36 47
43 121 22 249 -70 446 -97 695 -97 398 0 745 84 1105 269 98 50 114 53 148 24z"/>
<path d="M9405 6243 c-247 -124 -452 -227 -455 -230 -3 -3 2 -10 10 -15 158
-99 353 -219 359 -221 6 -2 191 229 544 681 5 6 6 12 1 11 -5 0 -211 -102
-459 -226z"/>
<path d="M5686 6448 c14 -22 486 -622 508 -645 l21 -23 183 113 c100 61 182
114 182 117 0 5 -885 450 -896 450 -3 0 -2 -6 2 -12z"/>
<path d="M1066 5204 c-3 -9 -6 -629 -6 -1379 0 -1217 2 -1365 15 -1373 10 -5
83 3 188 20 1699 277 3292 430 5217 500 454 17 2131 17 2580 0 1429 -53 2523
-138 3765 -293 478 -59 1212 -166 1538 -223 57 -10 81 -10 92 -2 13 10 15 172
13 1386 l-3 1375 -6696 3 c-6100 2 -6697 1 -6703 -14z m982 -1177 l2 -748 23
-8 c28 -10 143 3 162 19 13 11 15 114 17 749 l3 736 143 3 142 3 0 -783 c0
-743 -1 -785 -19 -824 -21 -45 -67 -85 -120 -103 -63 -21 -384 -63 -443 -58
-107 9 -176 68 -197 168 -12 56 -16 1581 -4 1593 4 3 70 5 147 4 l141 -3 3
-748z m1070 50 l2 -697 53 5 c148 15 262 25 288 25 l30 0 -3 -112 -3 -112
-327 -36 -328 -36 0 833 0 834 143 -3 142 -3 3 -698z m1252 588 l0 -115 -120
0 -120 0 0 -650 c0 -357 -3 -650 -7 -651 -5 0 -68 -6 -141 -12 -73 -7 -135
-11 -138 -8 -2 2 -4 301 -4 663 l0 658 -120 0 -120 0 0 108 c0 60 3 112 7 115
3 4 177 7 385 7 l378 0 0 -115z m500 -620 c0 -404 -1 -735 -2 -736 -11 -4
-280 -23 -284 -20 -7 7 -4 1477 3 1484 3 4 69 7 145 7 l138 0 0 -735z m619
698 c6 -21 53 -215 106 -432 52 -217 97 -396 99 -399 6 -5 5 -9 111 433 53
220 99 408 101 418 5 16 19 17 162 15 l157 -3 3 -697 2 -698 -47 0 c-27 0 -85
-3 -130 -7 l-83 -6 -1 469 -1 469 -82 -355 -82 -355 -108 0 -109 0 -77 335
c-42 185 -80 342 -83 350 -3 8 -6 -199 -6 -461 l-1 -476 -97 -6 c-54 -4 -113
-7 -130 -7 l-33 0 0 718 c0 395 3 722 7 725 3 4 75 7 159 7 l153 0 10 -37z
m1651 15 c5 -13 72 -310 150 -661 77 -351 143 -650 146 -663 l6 -24 -150 0
-149 0 -7 43 c-4 23 -14 72 -22 110 l-16 67 -111 0 c-62 0 -128 -3 -148 -6
l-37 -6 -21 -106 c-11 -58 -23 -108 -27 -111 -3 -3 -69 -7 -146 -9 l-141 -4 6
24 c3 13 69 320 147 683 78 363 143 666 145 673 3 9 49 12 185 12 178 0 181 0
190 -22z m1148 -95 l3 -113 -121 0 -120 0 0 -570 0 -570 -145 0 -145 0 -2 568
-3 567 -117 3 -118 3 0 114 0 115 383 -2 382 -3 3 -112z m892 2 l0 -115 -200
0 -200 0 0 -235 0 -235 63 0 c35 0 112 -3 170 -7 l107 -6 0 -109 0 -108 -170
0 -170 0 0 -105 c0 -76 4 -107 13 -110 6 -2 101 -7 210 -10 l197 -7 0 -115 0
-115 -202 6 c-112 3 -272 9 -355 12 l-153 6 0 684 0 684 345 0 345 0 0 -115z
m1397 79 c45 -23 64 -39 83 -74 23 -41 25 -57 28 -192 l4 -148 -146 0 -146 0
0 96 c0 131 -2 134 -101 134 -77 0 -80 -1 -90 -26 -6 -17 -9 -198 -7 -491 3
-535 -5 -493 104 -493 93 0 95 4 92 163 l-3 132 -50 5 -50 5 -3 89 c-2 49 1
93 6 98 6 6 88 7 201 2 l191 -7 0 -261 c0 -270 -5 -311 -43 -366 -51 -76 -130
-92 -385 -74 -236 15 -279 31 -325 117 -22 42 -22 46 -25 572 -4 582 -2 612
50 671 64 72 120 84 380 80 173 -3 179 -4 235 -32z m988 14 c53 -17 111 -77
125 -128 7 -28 10 -224 8 -628 -3 -540 -4 -590 -21 -627 -55 -122 -125 -142
-412 -115 -243 23 -282 38 -329 125 -21 39 -21 50 -24 605 -4 620 -2 647 50
706 40 45 75 63 146 74 81 13 408 4 457 -12z m978 0 c37 -149 366 -1662 363
-1666 -6 -5 -298 27 -305 33 -1 2 -16 66 -32 142 -17 76 -33 141 -37 144 -13
11 -354 42 -361 33 -4 -5 -18 -65 -30 -134 -12 -68 -23 -125 -24 -126 -3 -3
-281 28 -285 30 -2 3 325 1531 333 1554 3 9 50 12 189 12 182 0 184 0 189 -22z
m869 -745 l3 -767 170 -23 c94 -12 176 -22 183 -23 9 0 12 -30 12 -115 l0
-116 -32 6 c-39 7 -609 85 -620 85 -10 0 -11 1704 -1 1713 3 4 69 7 145 7
l138 0 2 -767z"/>
<path d="M6943 4395 c-23 -108 -96 -535 -92 -539 2 -2 49 -1 105 1 l101 6 -29
161 c-15 88 -38 220 -51 291 l-24 130 -10 -50z"/>
<path d="M11222 4538 c-17 -17 -17 -1024 0 -1034 6 -4 45 -9 86 -12 65 -4 77
-2 89 13 10 15 13 116 13 516 0 439 -2 499 -16 513 -19 20 -153 23 -172 4z"/>
<path d="M12347 4425 c-11 -39 -130 -705 -126 -709 8 -8 269 -19 269 -11 0 10
-129 716 -134 730 -1 6 -6 1 -9 -10z"/>
</g>
</svg>
